# xmcd
#
# Track frame offsets:
#	150
#	16152
#	35581
#	52608
#	68050
#	89755
#	108007
#	132328
#	136445
#	158849
#	182829
#	196861
#	211514
#	217702
#	240861
#
# Disc length: 3358 seconds
#
# Revision: 0
# Processed by: cddbd v1.5PL3 Copyright (c) Steve Scherf et al.
# Submitted via: dBpowerAMP V4.0
#
DISCID=b90d1c0f
DTITLE=Walter Franco - Tutano
DYEAR=1900
DGENRE=Blues
TTITLE0=Nasça
TTITLE1=Quem puxa aos seus não degenera
TTITLE2=Tutano
TTITLE3=Na ponta da língua
TTITLE4=Totem
TTITLE5=Zen
TTITLE6=Ai, essa mulher
TTITLE7=Intradução
TTITLE8=Senha do motim
TTITLE9=Cabeça
TTITLE10=Gema do novo
TTITLE11=Acerto com a natureza
TTITLE12=Distâncias
TTITLE13=Muito tudo
TTITLE14=DATA
EXTD=
EXTT0=
EXTT1=
EXTT2=
EXTT3=
EXTT4=
EXTT5=
EXTT6=
EXTT7=
EXTT8=
EXTT9=
EXTT10=
EXTT11=
EXTT12=
EXTT13=
EXTT14=
PLAYORDER=
